<?xml version="1.0" encoding="UTF-8"?>
<!-- Creator: CorelDRAW X8 -->
<svg xmlns="http://www.w3.org/2000/svg" xmlns:xlink="http://www.w3.org/1999/xlink" xml:space="preserve" width="1181px" height="283px" version="1.1" shape-rendering="geometricPrecision" text-rendering="geometricPrecision" image-rendering="optimizeQuality" fill-rule="evenodd" clip-rule="evenodd" viewBox="0 0 1181 283">
 <g id="Layer_x0020_1">
  <metadata id="CorelCorpID_0Corel-Layer"></metadata>
  <g id="_2377644498624">
   <polygon fill="none" points="3,11 1178,11 1178,272 3,272 "></polygon>
   <g>
    <line fill="none" fill-rule="nonzero" x1="200" y1="171" x2="124" y2="141"></line>
    <path fill="#ED3423" fill-rule="nonzero" d="M219 178c-6,16 -15,30 -27,41 -11,12 -42,32 -58,32 -17,0 -47,-20 -58,-32 -12,-11 -21,-25 -27,-41 -12,-33 -9,-57 -9,-89 0,-16 13,-29 27,-29 21,-1 37,-8 52,-22l1 -1c8,-6 20,-6 27,1 23,13 22,20 53,22 15,0 27,13 27,29 0,31 3,58 -8,89z"></path>
    <path fill="#FEFEFE" fill-rule="nonzero" d="M161 110l-43 43 -14 -11c-2,-5 -11,-5 -13,0 -5,4 -5,11 0,16l18 20c2,2 4,2 9,2 2,0 4,0 7,-2l52 -52c4,-4 4,-11 0,-16 -5,-4 -12,-4 -16,0l0 0zm0 0z"></path>
    <g>
     <path fill="#FEFEFE" d="M625 84l33 0 0 1c-7,4 -14,9 -20,15 -5,6 -9,12 -13,18l0 -34z"></path>
     <path fill="#FEFEFE" d="M530 125c-18,3 -29,18 -27,35 3,17 18,29 35,26 18,-2 29,-17 26,-35 -2,-17 -17,-28 -34,-26zm33 96c-4,1 -9,4 -14,5 -19,4 -39,1 -55,-11 -28,-19 -40,-53 -27,-85 10,-26 33,-44 61,-46 14,-1 20,1 32,5 1,1 2,1 3,2l0 -7 41 0 0 142 -41 0 0 -5z"></path>
     <polygon fill="#FEFEFE" points="1100,97 1141,83 1141,223 1141,226 1100,226 1100,223 "></polygon>
     <path fill="#FEFEFE" d="M1013 161l29 -75 44 -1 -1 3c-4,12 -9,24 -14,35 -5,11 -10,22 -14,34 -4,11 -9,22 -14,34 -1,4 -13,34 -16,35l0 0 -30 0 0 -1c-4,-2 -45,-106 -50,-120 -2,-5 -5,-13 -7,-16l-2 -4 42 0c5,0 6,7 7,11 4,11 9,22 13,33 4,10 9,21 13,32z"></path>
     <polygon fill="#FEFEFE" points="912,187 928,187 928,226 910,226 871,226 871,224 871,205 871,70 912,56 "></polygon>
     <path fill="#FEFEFE" d="M622 224c0,-19 0,-37 0,-55 0,-25 6,-43 23,-62 15,-15 37,-25 59,-25l2 0 0 40 -2 1c-6,1 -10,1 -15,3 -12,5 -21,14 -25,27 -2,9 -2,27 -2,36 1,12 1,23 1,35l0 2 -41 0 0 -2z"></path>
     <path fill="#FEFEFE" d="M404 148c0,2 -1,3 -2,4 -2,3 -4,6 -5,9 -4,7 -7,13 -11,19 -7,12 -15,24 -21,37l-1 1 -26 0 -1 -1c-2,-3 -5,-8 -7,-11 -4,-7 -8,-14 -13,-22 -6,-10 -12,-21 -18,-31l-2 -4c0,7 0,14 0,21l0 55 -42 0 0 -169 38 0 0 1c10,18 20,36 30,54 5,8 9,17 14,26 2,3 10,18 14,23 4,-6 11,-19 13,-24l45 -80 38 0 0 169 -41 -1c-1,0 -1,0 -1,0l-1 -76z"></path>
     <path fill="#FEFEFE" d="M756 135l59 0c-4,-8 -16,-17 -30,-16 -14,0 -24,8 -29,16zm82 69l-27 -26c-3,2 -4,5 -12,9 -6,2 -12,3 -18,2 -12,-2 -21,-9 -25,-16l102 0c0,-24 0,-39 -10,-56 -27,-46 -95,-50 -126,1 -9,14 -12,36 -7,54 13,51 75,70 114,40 7,-6 4,-4 9,-8z"></path>
    </g>
   </g>
  </g>
 </g>
</svg>
